<svg width="2424" height="2065" viewBox="0 0 2424 2065" fill="none" xmlns="http://www.w3.org/2000/svg">
<rect width="2424" height="2065" fill="#E5E5E5"/>
<rect x="281" y="171" width="1608" height="1579" stroke="#242E3B" stroke-width="2"/>
<path d="M235 988V1363H800M792.327 1358.3L800 1363L792.327 1367.7" stroke="#414750" stroke-width="2"/>
<text fill="#232F3E" style="white-space: pre" xml:space="preserve" font-family="Inter, 'Helvetica Neue', Helvetica, Arial, sans-serif" font-size="16" font-weight="bold" letter-spacing="0em"><tspan x="388" y="1326.02">Direct multipart POST</tspan></text>
<text fill="#232F3E" style="white-space: pre" xml:space="preserve" font-family="Inter, 'Helvetica Neue', Helvetica, Arial, sans-serif" font-size="15" letter-spacing="0em"><tspan x="388" y="1347.95">Presigned policy &#xb7; 5 min &#xb7; 1 B&#x2013;50 MiB</tspan></text>
<text fill="#232F3E" style="white-space: pre" xml:space="preserve" font-family="Inter, 'Helvetica Neue', Helvetica, Arial, sans-serif" font-size="16" letter-spacing="0em"><tspan x="350" y="1693.02">Approved media &#xb7; presigned GET &#xb7; 5 min</tspan></text>
<rect x="292" y="1668" width="32" height="29" rx="3" fill="black"/>
<text fill="white" style="white-space: pre" xml:space="preserve" font-family="Inter, 'Helvetica Neue', Helvetica, Arial, sans-serif" font-size="16" font-weight="bold" letter-spacing="0em"><tspan x="302.711" y="1688.02">8</tspan></text>
<rect x="703" y="241" width="1148" height="1434" stroke="#0094A6" stroke-width="2" stroke-dasharray="8 5"/>
<path d="M1279.5 1530H1612.5M1604.83 1525.3L1612.5 1530L1604.83 1534.7" stroke="#414750" stroke-width="2" stroke-dasharray="8 5"/>
<text fill="#232F3E" style="white-space: pre" xml:space="preserve" font-family="Inter, 'Helvetica Neue', Helvetica, Arial, sans-serif" font-size="15" letter-spacing="0em"><tspan x="1385" y="1518.95">On invocation failure&#xb2;</tspan></text>
<g clip-path="url(#clip0_0_1)">
<g clip-path="url(#clip1_0_1)">
<path d="M1695 1488H1615V1568H1695V1488Z" fill="#E7157B"/>
<path fill-rule="evenodd" clip-rule="evenodd" d="M1643.72 1531.69L1646.72 1528.72C1646.91 1528.54 1647.01 1528.28 1647.01 1528.02C1647.02 1527.76 1646.91 1527.5 1646.72 1527.32L1643.72 1524.32L1642.3 1525.72L1643.59 1527.01H1639.01V1528.99H1643.61L1642.31 1530.28L1643.72 1531.69ZM1666.63 1531.78L1670.63 1528.79C1670.88 1528.61 1671.03 1528.31 1671.03 1528C1671.03 1527.69 1670.88 1527.39 1670.63 1527.2L1666.63 1524.22L1665.43 1525.81L1667.03 1527.01H1663.02V1528.99H1667.03L1665.42 1530.19L1666.63 1531.78ZM1650.21 1528C1650.21 1530.11 1649.84 1532.1 1649.16 1533.83C1650.96 1533.14 1652.99 1532.8 1655.02 1532.8C1657.05 1532.8 1659.08 1533.14 1660.88 1533.83C1660.2 1532.1 1659.83 1530.11 1659.83 1528C1659.83 1525.89 1660.2 1523.9 1660.88 1522.17C1657.28 1523.55 1652.76 1523.55 1649.16 1522.17C1649.84 1523.9 1650.21 1525.89 1650.21 1528ZM1645.31 1537.65C1645.11 1537.46 1645.01 1537.2 1645.01 1536.95C1645.01 1536.69 1645.11 1536.44 1645.31 1536.25C1647.12 1534.44 1648.21 1531.36 1648.21 1528C1648.21 1524.64 1647.12 1521.56 1645.31 1519.75C1645.11 1519.56 1645.01 1519.31 1645.01 1519.05C1645.01 1518.8 1645.11 1518.54 1645.31 1518.35C1645.7 1517.96 1646.33 1517.96 1646.72 1518.35C1650.6 1522.2 1659.44 1522.2 1663.32 1518.35C1663.71 1517.96 1664.34 1517.96 1664.73 1518.35C1664.93 1518.54 1665.03 1518.8 1665.03 1519.05C1665.03 1519.31 1664.93 1519.56 1664.73 1519.75C1662.92 1521.56 1661.83 1524.64 1661.83 1528C1661.83 1531.36 1662.92 1534.44 1664.73 1536.25C1664.93 1536.44 1665.03 1536.69 1665.03 1536.95C1665.03 1537.2 1664.93 1537.46 1664.73 1537.65C1664.54 1537.85 1664.28 1537.94 1664.03 1537.94C1663.77 1537.94 1663.51 1537.85 1663.32 1537.65C1659.44 1533.8 1650.6 1533.8 1646.72 1537.65C1646.33 1538.04 1645.7 1538.04 1645.31 1537.65ZM1681 1528C1681 1527.08 1680.64 1526.21 1679.98 1525.55C1679.3 1524.88 1678.4 1524.54 1677.51 1524.54C1676.62 1524.54 1675.72 1524.88 1675.04 1525.55C1673.68 1526.9 1673.68 1529.1 1675.04 1530.46C1676.4 1531.81 1678.62 1531.81 1679.98 1530.46C1680.64 1529.8 1681 1528.93 1681 1528ZM1681.39 1531.86C1680.32 1532.93 1678.92 1533.46 1677.51 1533.46C1676.1 1533.46 1674.7 1532.93 1673.63 1531.86C1671.48 1529.74 1671.48 1526.27 1673.63 1524.15C1675.77 1522.02 1679.25 1522.02 1681.39 1524.15C1683.54 1526.27 1683.54 1529.74 1681.39 1531.86ZM1635.98 1528.03C1635.98 1527.1 1635.62 1526.23 1634.96 1525.58C1634.3 1524.92 1633.42 1524.56 1632.49 1524.56C1631.56 1524.56 1630.68 1524.92 1630.02 1525.58C1629.36 1526.23 1629 1527.1 1629 1528.03C1629 1528.95 1629.36 1529.82 1630.02 1530.48C1631.34 1531.79 1633.64 1531.79 1634.96 1530.48C1635.62 1529.82 1635.98 1528.95 1635.98 1528.03ZM1636.37 1531.89C1635.3 1532.95 1633.9 1533.48 1632.49 1533.48C1631.08 1533.48 1629.68 1532.95 1628.61 1531.89C1626.46 1529.76 1626.46 1526.3 1628.61 1524.17C1630.75 1522.04 1634.23 1522.04 1636.37 1524.17C1638.51 1526.3 1638.51 1529.76 1636.37 1531.89ZM1669.9 1542.86C1665.9 1546.83 1660.59 1549.01 1654.94 1549.01C1649.29 1549.01 1643.98 1546.83 1639.98 1542.86C1637.24 1540.13 1635.73 1536.88 1634.95 1534.63L1633.06 1535.28C1633.91 1537.73 1635.56 1541.27 1638.57 1544.26C1642.94 1548.61 1648.75 1551 1654.94 1551C1661.12 1551 1666.94 1548.61 1671.31 1544.26C1673.84 1541.75 1675.85 1538.56 1676.98 1535.28L1675.09 1534.64C1674.05 1537.64 1672.21 1540.56 1669.9 1542.86ZM1634.95 1521.37L1633.06 1520.71C1634.27 1517.25 1636.23 1514.06 1638.57 1511.73C1642.94 1507.39 1648.76 1505 1654.94 1505C1661.12 1505 1666.93 1507.39 1671.3 1511.73C1673.77 1514.18 1675.84 1517.46 1676.98 1520.71L1675.09 1521.37C1674.04 1518.38 1672.15 1515.38 1669.89 1513.14C1665.9 1509.17 1660.59 1506.99 1654.94 1506.99C1649.29 1506.99 1643.98 1509.17 1639.99 1513.14C1637.85 1515.26 1636.07 1518.18 1634.95 1521.37Z" fill="white"/>
</g>
<text fill="#232F3E" style="white-space: pre" xml:space="preserve" font-family="Inter, 'Helvetica Neue', Helvetica, Arial, sans-serif" font-size="16" font-weight="bold" letter-spacing="0em"><tspan x="1604.16" y="1592.02">Amazon SQS</tspan></text>
<text fill="#232F3E" style="white-space: pre" xml:space="preserve" font-family="Inter, 'Helvetica Neue', Helvetica, Arial, sans-serif" font-size="15" letter-spacing="0em"><tspan x="1567.86" y="1613.95">Async failure destination&#10;</tspan><tspan x="1560.85" y="1634.95">2 retries &#xb7; 14-day retention</tspan></text>
</g>
<text fill="#232F3E" style="white-space: pre" xml:space="preserve" font-family="Inter, 'Helvetica Neue', Helvetica, Arial, sans-serif" font-size="15" letter-spacing="0em"><tspan x="1157" y="1323.95">ObjectCreated:*</tspan></text>
<text fill="#232F3E" style="white-space: pre" xml:space="preserve" font-family="Inter, 'Helvetica Neue', Helvetica, Arial, sans-serif" font-size="14" letter-spacing="0em"><tspan x="1157" y="1343.89">incoming/ only</tspan></text>
<rect x="1149" y="1488" width="32" height="29" rx="3" fill="black"/>
<text fill="white" style="white-space: pre" xml:space="preserve" font-family="Inter, 'Helvetica Neue', Helvetica, Arial, sans-serif" font-size="16" font-weight="bold" letter-spacing="0em"><tspan x="1159.84" y="1508.02">5</tspan></text>
<text fill="#232F3E" style="white-space: pre" xml:space="preserve" font-family="Inter, 'Helvetica Neue', Helvetica, Arial, sans-serif" font-size="14" letter-spacing="0em"><tspan x="1509" y="1319.89">Get / PutItem&#10;</tspan><tspan x="1509" y="1339.49">Preserve user_sub</tspan></text>
<rect x="1150" y="1131" width="32" height="29" rx="3" fill="black"/>
<text fill="white" style="white-space: pre" xml:space="preserve" font-family="Inter, 'Helvetica Neue', Helvetica, Arial, sans-serif" font-size="16" font-weight="bold" letter-spacing="0em"><tspan x="1161.24" y="1151.02">7</tspan></text>
<path d="M1215 1485.5V1361L1145 1361M1210.3 1477.83L1215 1485.5L1219.7 1477.83" stroke="#414750" stroke-width="2" stroke-dasharray="8 5"/>
<path d="M1195.5 1532L1063 1532V1457M1058.3 1464.67L1063 1457L1067.7 1464.67" stroke="#414750" stroke-width="2"/>
<path d="M1261 1486.5V1359.5H1553L1656.7 1359.5V1201V1120M1652 1127.67L1656.7 1120L1661.41 1127.67" stroke="#414750" stroke-width="2"/>
<rect x="754" y="1316" width="32" height="29" rx="3" fill="black"/>
<text fill="white" style="white-space: pre" xml:space="preserve" font-family="Inter, 'Helvetica Neue', Helvetica, Arial, sans-serif" font-size="16" font-weight="bold" letter-spacing="0em"><tspan x="764.578" y="1336.02">4</tspan></text>
<g clip-path="url(#clip2_0_1)">
<g clip-path="url(#clip3_0_1)">
<path d="M1277 1487H1197V1567H1277V1487Z" fill="#ED7100"/>
<path fill-rule="evenodd" clip-rule="evenodd" d="M1225.01 1553H1212.59L1226.32 1524.3L1232.55 1537.11L1225.01 1553ZM1227.22 1521.55C1227.05 1521.21 1226.7 1520.99 1226.32 1520.99H1226.31C1225.93 1520.99 1225.58 1521.21 1225.41 1521.56L1210.1 1553.57C1209.95 1553.88 1209.97 1554.24 1210.16 1554.53C1210.34 1554.82 1210.66 1555 1211 1555H1225.64C1226.03 1555 1226.38 1554.78 1226.55 1554.43L1234.56 1537.53C1234.69 1537.25 1234.69 1536.94 1234.56 1536.67L1227.22 1521.55ZM1262 1553H1249.66L1229.87 1511.57C1229.7 1511.22 1229.35 1511 1228.96 1511H1220.89L1220.9 1501H1236.72L1256.42 1542.43C1256.59 1542.78 1256.94 1543 1257.33 1543H1262V1553ZM1263 1541H1257.96L1238.26 1499.57C1238.09 1499.22 1237.74 1499 1237.35 1499H1219.9C1219.35 1499 1218.9 1499.45 1218.9 1500L1218.88 1512C1218.88 1512.27 1218.99 1512.52 1219.18 1512.71C1219.37 1512.9 1219.62 1513 1219.89 1513H1228.33L1248.12 1554.43C1248.29 1554.78 1248.64 1555 1249.03 1555H1263C1263.55 1555 1264 1554.55 1264 1554V1542C1264 1541.45 1263.55 1541 1263 1541Z" fill="white"/>
</g>
<text fill="#232F3E" style="white-space: pre" xml:space="preserve" font-family="Inter, 'Helvetica Neue', Helvetica, Arial, sans-serif" font-size="16" font-weight="bold" letter-spacing="0em"><tspan x="1184.98" y="1591.02">AWS Lambda</tspan></text>
<text fill="#232F3E" style="white-space: pre" xml:space="preserve" font-family="Inter, 'Helvetica Neue', Helvetica, Arial, sans-serif" font-size="15" letter-spacing="0em"><tspan x="1184.62" y="1612.95">imageValidator&#10;</tspan><tspan x="1147.88" y="1633.95">filetype &#xb7; Pillow &#xb7; OpenCV</tspan></text>
</g>
<rect x="1548" y="1018" width="32" height="29" rx="3" fill="black"/>
<text fill="white" style="white-space: pre" xml:space="preserve" font-family="Inter, 'Helvetica Neue', Helvetica, Arial, sans-serif" font-size="16" font-weight="bold" letter-spacing="0em"><tspan x="1558.72" y="1038.02">6</tspan></text>
<rect x="806" y="1268" width="338" height="188" stroke="#7AA116" stroke-width="2"/>
<g clip-path="url(#clip4_0_1)">
<path d="M897 1281H817V1361H897V1281Z" fill="#7AA116"/>
<path fill-rule="evenodd" clip-rule="evenodd" d="M877.836 1323.89L878.22 1321.19C881.761 1323.31 881.807 1324.19 881.806 1324.21C881.8 1324.21 881.196 1324.72 877.836 1323.89ZM875.893 1323.35C869.773 1321.5 861.25 1317.59 857.801 1315.96C857.801 1315.95 857.805 1315.93 857.805 1315.92C857.805 1314.59 856.727 1313.52 855.401 1313.52C854.077 1313.52 852.999 1314.59 852.999 1315.92C852.999 1317.24 854.077 1318.32 855.401 1318.32C855.983 1318.32 856.511 1318.11 856.928 1317.76C860.986 1319.68 869.443 1323.53 875.608 1325.35L873.17 1342.56C873.163 1342.61 873.16 1342.65 873.16 1342.7C873.16 1344.22 866.453 1347 855.494 1347C844.419 1347 837.641 1344.22 837.641 1342.7C837.641 1342.66 837.638 1342.61 837.632 1342.57L832.538 1305.36C836.947 1308.39 846.43 1310 855.5 1310C864.556 1310 874.023 1308.4 878.441 1305.37L875.893 1323.35ZM832 1301.48C832.072 1300.16 839.634 1295 855.5 1295C871.364 1295 878.927 1300.16 879 1301.48V1301.93C878.13 1304.88 868.33 1308 855.5 1308C842.648 1308 832.843 1304.87 832 1301.91V1301.48ZM881 1301.5C881 1298.03 871.066 1293 855.5 1293C839.934 1293 830 1298.03 830 1301.5L830.094 1302.25L835.642 1342.78C835.775 1347.31 847.861 1349 855.494 1349C864.966 1349 875.029 1346.82 875.159 1342.78L877.555 1325.88C878.888 1326.2 879.985 1326.37 880.866 1326.37C882.049 1326.37 882.849 1326.08 883.334 1325.5C883.732 1325.02 883.884 1324.45 883.77 1323.84C883.511 1322.46 881.868 1320.96 878.522 1319.05L880.898 1302.29L881 1301.5Z" fill="white"/>
</g>
<text fill="#232F3E" style="white-space: pre" xml:space="preserve" font-family="Inter, 'Helvetica Neue', Helvetica, Arial, sans-serif" font-size="16" font-weight="bold" letter-spacing="0em"><tspan x="911" y="1302.02">Amazon S3</tspan></text>
<text fill="#232F3E" style="white-space: pre" xml:space="preserve" font-family="Inter, 'Helvetica Neue', Helvetica, Arial, sans-serif" font-size="14" letter-spacing="0em"><tspan x="911" y="1322.89">Private media bucket&#10;</tspan><tspan x="911" y="1342.49">Versioned &#xb7; SSE-S3 &#xb7; TLS</tspan></text>
<text fill="#232F3E" style="white-space: pre" xml:space="preserve" font-family="Inter, 'Helvetica Neue', Helvetica, Arial, sans-serif" font-size="16" font-weight="bold" letter-spacing="0em"><tspan x="819" y="1396.02">incoming/    approved/    rejected/</tspan></text>
<text fill="#232F3E" style="white-space: pre" xml:space="preserve" font-family="Inter, 'Helvetica Neue', Helvetica, Arial, sans-serif" font-size="14" letter-spacing="0em"><tspan x="819" y="1426.89">1-day expiry        7-day expiry&#xb9;</tspan></text>
<g clip-path="url(#clip5_0_1)">
<g clip-path="url(#clip6_0_1)">
<path d="M1277 838H1197V918H1277V838Z" fill="#ED7100"/>
<path fill-rule="evenodd" clip-rule="evenodd" d="M1225.01 904H1212.59L1226.32 875.296L1232.55 888.106L1225.01 904ZM1227.22 872.553C1227.05 872.208 1226.7 871.989 1226.32 871.989H1226.31C1225.93 871.99 1225.58 872.211 1225.41 872.558L1210.1 904.569C1209.95 904.879 1209.97 905.243 1210.16 905.534C1210.34 905.824 1210.66 906 1211 906H1225.64C1226.03 906 1226.38 905.777 1226.55 905.428L1234.56 888.528C1234.69 888.254 1234.69 887.937 1234.56 887.665L1227.22 872.553ZM1262 904H1249.66L1229.87 862.57C1229.7 862.222 1229.35 862 1228.96 862H1220.89L1220.9 852H1236.72L1256.42 893.429C1256.59 893.777 1256.94 894 1257.33 894H1262V904ZM1263 892H1257.96L1238.26 850.571C1238.09 850.223 1237.74 850 1237.35 850H1219.9C1219.35 850 1218.9 850.447 1218.9 850.999L1218.88 862.999C1218.88 863.265 1218.99 863.519 1219.18 863.707C1219.37 863.895 1219.62 864 1219.89 864H1228.33L1248.12 905.43C1248.29 905.778 1248.64 906 1249.03 906H1263C1263.55 906 1264 905.552 1264 905V893C1264 892.448 1263.55 892 1263 892Z" fill="white"/>
</g>
<text fill="#232F3E" style="white-space: pre" xml:space="preserve" font-family="Inter, 'Helvetica Neue', Helvetica, Arial, sans-serif" font-size="16" font-weight="bold" letter-spacing="0em"><tspan x="1184.98" y="942.018">AWS Lambda</tspan></text>
<text fill="#232F3E" style="white-space: pre" xml:space="preserve" font-family="Inter, 'Helvetica Neue', Helvetica, Arial, sans-serif" font-size="15" letter-spacing="0em"><tspan x="1169.85" y="963.955">generateUploadUrl&#10;</tspan><tspan x="1127.15" y="984.955">Create policy + pending record</tspan></text>
</g>
<g clip-path="url(#clip7_0_1)">
<g clip-path="url(#clip8_0_1)">
<path d="M1277 1078H1197V1158H1277V1078Z" fill="#ED7100"/>
<path fill-rule="evenodd" clip-rule="evenodd" d="M1225.01 1144H1212.59L1226.32 1115.3L1232.55 1128.11L1225.01 1144ZM1227.22 1112.55C1227.05 1112.21 1226.7 1111.99 1226.32 1111.99H1226.31C1225.93 1111.99 1225.58 1112.21 1225.41 1112.56L1210.1 1144.57C1209.95 1144.88 1209.97 1145.24 1210.16 1145.53C1210.34 1145.82 1210.66 1146 1211 1146H1225.64C1226.03 1146 1226.38 1145.78 1226.55 1145.43L1234.56 1128.53C1234.69 1128.25 1234.69 1127.94 1234.56 1127.67L1227.22 1112.55ZM1262 1144H1249.66L1229.87 1102.57C1229.7 1102.22 1229.35 1102 1228.96 1102H1220.89L1220.9 1092H1236.72L1256.42 1133.43C1256.59 1133.78 1256.94 1134 1257.33 1134H1262V1144ZM1263 1132H1257.96L1238.26 1090.57C1238.09 1090.22 1237.74 1090 1237.35 1090H1219.9C1219.35 1090 1218.9 1090.45 1218.9 1091L1218.88 1103C1218.88 1103.27 1218.99 1103.52 1219.18 1103.71C1219.37 1103.9 1219.62 1104 1219.89 1104H1228.33L1248.12 1145.43C1248.29 1145.78 1248.64 1146 1249.03 1146H1263C1263.55 1146 1264 1145.55 1264 1145V1133C1264 1132.45 1263.55 1132 1263 1132Z" fill="white"/>
</g>
<text fill="#232F3E" style="white-space: pre" xml:space="preserve" font-family="Inter, 'Helvetica Neue', Helvetica, Arial, sans-serif" font-size="16" font-weight="bold" letter-spacing="0em"><tspan x="1184.98" y="1182.02">AWS Lambda</tspan></text>
<text fill="#232F3E" style="white-space: pre" xml:space="preserve" font-family="Inter, 'Helvetica Neue', Helvetica, Arial, sans-serif" font-size="15" letter-spacing="0em"><tspan x="1180.82" y="1203.95">getMediaStatus&#10;</tspan><tspan x="1119.89" y="1224.95">Check owner + sign preview URL</tspan></text>
</g>
<g clip-path="url(#clip9_0_1)">
<g clip-path="url(#clip10_0_1)">
<path d="M1695 958H1615V1038H1695V958Z" fill="#C925D1"/>
<path fill-rule="evenodd" clip-rule="evenodd" d="M1667.09 1012.85C1663.75 1015.55 1656.74 1016.98 1650.04 1016.98C1643.34 1016.98 1636.34 1015.55 1633 1012.85V1018.28C1633 1021 1640 1024.02 1650.04 1024.02C1660.08 1024.02 1667.07 1021 1667.09 1018.29V1012.85ZM1667.09 1002.52L1669.09 1002.51V1002.52C1669.09 1003.73 1668.48 1004.86 1667.3 1005.89C1668.73 1007.15 1669.09 1008.38 1669.09 1009.26C1669.09 1009.26 1669.09 1009.27 1669.09 1009.27V1018.28C1669.09 1023.3 1659.27 1026 1650.04 1026C1640.83 1026 1631.05 1023.31 1631 1018.32C1631 1018.31 1631 1018.31 1631 1018.3V1009.25C1631 1009.25 1631 1009.25 1631 1009.25C1631.01 1008.37 1631.36 1007.14 1632.79 1005.89C1631.37 1004.64 1631.01 1003.41 1631 1002.54H1631C1631 1002.54 1631 1002.54 1631 1002.53V993.484C1631 993.481 1631 993.478 1631 993.475C1631.01 992.597 1631.36 991.369 1632.79 990.117C1631.37 988.865 1631.01 987.643 1631 986.773H1631C1631 986.769 1631 986.765 1631 986.761V977.713C1631 977.71 1631 977.707 1631 977.704C1631.02 972.7 1640.82 970 1650.04 970C1655.25 970 1660.26 970.828 1663.78 972.272L1663.01 974.105C1659.73 972.757 1655 971.984 1650.04 971.984C1640 971.984 1633 975.005 1633 977.717C1633 980.429 1640 983.45 1650.04 983.45C1650.31 983.453 1650.58 983.45 1650.85 983.44L1650.93 985.422C1650.64 985.434 1650.34 985.434 1650.04 985.434C1643.34 985.434 1636.34 984.007 1633 981.308V986.74L1633 986.763C1633.01 987.803 1634.08 988.712 1634.97 989.289C1637.66 991.004 1642.48 992.175 1647.86 992.418L1647.77 994.4C1642.32 994.153 1637.55 993.023 1634.48 991.292C1633.73 991.857 1633 992.622 1633 993.489C1633 996.2 1640 999.221 1650.04 999.221C1651.03 999.221 1652.01 999.189 1652.95 999.123L1653.09 1001.1C1652.1 1001.17 1651.07 1001.21 1650.04 1001.21C1643.34 1001.21 1636.34 999.778 1633 997.079V1002.51C1633.01 1003.57 1634.08 1004.48 1634.97 1005.06C1638.05 1007.02 1643.82 1008.25 1650.04 1008.25H1650.48V1010.23H1650.04C1643.72 1010.23 1637.98 1009.06 1634.47 1007.07C1633.72 1007.64 1633 1008.4 1633 1009.26C1633 1011.97 1640 1014.99 1650.04 1014.99C1660.08 1014.99 1667.07 1011.97 1667.09 1009.26V1009.25C1667.08 1008.39 1666.36 1007.63 1665.61 1007.07C1665.12 1007.34 1664.6 1007.61 1664 1007.86L1663.24 1006.02C1663.96 1005.72 1664.59 1005.4 1665.11 1005.06C1666.01 1004.47 1667.09 1003.55 1667.09 1002.52ZM1675.65 988.017H1670.05C1669.72 988.017 1669.41 987.854 1669.22 987.582C1669.03 987.31 1669 986.964 1669.12 986.66L1672.53 978.138H1659.62L1653.62 990.04H1660C1660.32 990.04 1660.62 990.192 1660.81 990.447C1661 990.703 1661.05 991.031 1660.95 991.333L1655.26 1009.09L1675.65 988.017ZM1678.72 987.712L1653.72 1013.54C1653.53 1013.74 1653.27 1013.84 1653 1013.84C1652.82 1013.84 1652.65 1013.8 1652.49 1013.71C1652.09 1013.47 1651.91 1012.99 1652.05 1012.55L1658.63 992.024H1652C1651.65 992.024 1651.33 991.846 1651.15 991.554C1650.97 991.261 1650.95 990.896 1651.11 990.589L1658.11 976.703C1658.28 976.367 1658.62 976.154 1659 976.154H1674C1674.33 976.154 1674.64 976.318 1674.83 976.589C1675.01 976.862 1675.05 977.207 1674.93 977.512L1671.52 986.033H1678C1678.4 986.033 1678.76 986.271 1678.92 986.636C1679.08 987.002 1679 987.426 1678.72 987.712ZM1634.45 1018.67C1635.87 1019.47 1637.66 1020.14 1639.76 1020.67L1640.24 1018.74C1638.35 1018.27 1636.69 1017.65 1635.44 1016.95L1634.45 1018.67ZM1639.76 1004.8L1640.24 1002.88C1638.35 1002.4 1636.69 1001.78 1635.44 1001.08L1634.45 1002.8C1635.87 1003.6 1637.65 1004.27 1639.76 1004.8ZM1634.45 986.936L1635.44 985.211C1636.68 985.911 1638.34 986.531 1640.24 987.006L1639.76 988.929C1637.65 988.404 1635.87 987.733 1634.45 986.936Z" fill="white"/>
</g>
<text fill="#232F3E" style="white-space: pre" xml:space="preserve" font-family="Inter, 'Helvetica Neue', Helvetica, Arial, sans-serif" font-size="16" font-weight="bold" letter-spacing="0em"><tspan x="1577.46" y="1062.02">Amazon DynamoDB</tspan></text>
<text fill="#232F3E" style="white-space: pre" xml:space="preserve" font-family="Inter, 'Helvetica Neue', Helvetica, Arial, sans-serif" font-size="15" letter-spacing="0em"><tspan x="1604.11" y="1083.95">MediaUploads&#10;</tspan><tspan x="1557.17" y="1104.95">media_id &#xb7; user_sub &#xb7; status</tspan></text>
</g>
<path d="M905 993H1005V878H1195M1187.33 873.296L1195 878L1187.33 882.704" stroke="#414750" stroke-width="2"/>
<path d="M1005 993V1118H1195M1187.33 1113.3L1195 1118L1187.33 1122.7" stroke="#414750" stroke-width="2"/>
<text fill="#232F3E" style="white-space: pre" xml:space="preserve" font-family="Inter, 'Helvetica Neue', Helvetica, Arial, sans-serif" font-size="16" letter-spacing="0em"><tspan x="1026" y="1103.02">POST /media-status</tspan></text>
<path d="M1277.5 878L1475 878V988H1610M1602.33 983.296L1610 988L1602.33 992.704" stroke="#414750" stroke-width="2"/>
<path d="M1277.5 1118H1475V1013H1515H1610M1602.33 1008.3L1610 1013L1602.33 1017.7" stroke="#414750" stroke-width="2"/>
<text fill="#232F3E" style="white-space: pre" xml:space="preserve" font-family="Inter, 'Helvetica Neue', Helvetica, Arial, sans-serif" font-size="15" letter-spacing="0em"><tspan x="1292" y="1102.95">GetItem &#xb7; owner check</tspan></text>
<rect width="194" height="29" transform="translate(580 348)" fill="white"/>
<text fill="#232F3E" style="white-space: pre" xml:space="preserve" font-family="Inter, 'Helvetica Neue', Helvetica, Arial, sans-serif" font-size="15" letter-spacing="0em"><tspan x="580" y="367.955">OAC &#xb7; signed origin request</tspan></text>
<g clip-path="url(#clip11_0_1)">
<g clip-path="url(#clip12_0_1)">
<path d="M905 952H825V1032H905V952Z" fill="#8C4FFF"/>
<path fill-rule="evenodd" clip-rule="evenodd" d="M859.065 1007.63H862V1005.62H859.065V1007.63ZM864 1007.63H867V1005.62H864V1007.63ZM852 966.63L839 973.082V1013.19L852 1017.59V966.63ZM854 979.393V1005.62H857V1007.63H854V1018.99C854 1019.32 853.845 1019.62 853.584 1019.81C853.412 1019.94 853.207 1020 853 1020C852.894 1020 852.786 1019.98 852.682 1019.95L837.682 1014.88C837.274 1014.74 837 1014.35 837 1013.92V972.454C837 972.071 837.217 971.719 837.559 971.549L852.559 964.104C852.868 963.95 853.235 963.968 853.528 964.153C853.821 964.336 854 964.66 854 965.009V977.376H857V979.393H854ZM869 1007.63H872V1005.62H869V1007.63ZM869.065 979.393H872V977.376H869.065V979.393ZM864.065 979.393H867V977.376H864.065V979.393ZM859.065 979.393H862V977.376H859.065V979.393ZM891 973.082L878 966.63V1017.59L891 1013.19V973.082ZM893 1013.92C893 1014.35 892.726 1014.74 892.318 1014.88L877.318 1019.95C877.214 1019.98 877.106 1020 877 1020C876.793 1020 876.588 1019.94 876.416 1019.81C876.155 1019.62 876 1019.32 876 1018.99V1007.63H874.065V1005.62H876V979.393H874.065V977.376H876V965.009C876 964.66 876.179 964.336 876.472 964.153C876.765 963.968 877.131 963.95 877.441 964.104L892.441 971.549C892.783 971.719 893 972.071 893 972.454V1013.92ZM867.934 985.807L866.066 985.083L861.066 998.194L862.934 998.918L867.934 985.807ZM874.707 992.209C875.098 991.815 875.098 991.176 874.707 990.783L870.707 986.749L869.293 988.175L872.586 991.496L869.293 994.817L870.707 996.243L874.707 992.209ZM859.293 996.243L855.293 992.209C854.902 991.815 854.902 991.176 855.293 990.783L859.293 986.749L860.707 988.175L857.414 991.496L860.707 994.817L859.293 996.243Z" fill="white"/>
</g>
<text fill="#232F3E" style="white-space: pre" xml:space="preserve" font-family="Inter, 'Helvetica Neue', Helvetica, Arial, sans-serif" font-size="16" font-weight="bold" letter-spacing="0em"><tspan x="781.125" y="1056.02">Amazon API Gateway</tspan></text>
<text fill="#232F3E" style="white-space: pre" xml:space="preserve" font-family="Inter, 'Helvetica Neue', Helvetica, Arial, sans-serif" font-size="15" letter-spacing="0em"><tspan x="770.774" y="1077.95">HTTP API &#xb7; JWT authorizer</tspan></text>
</g>
<text fill="#232F3E" style="white-space: pre" xml:space="preserve" font-family="Inter, 'Helvetica Neue', Helvetica, Arial, sans-serif" font-size="14" letter-spacing="0em"><tspan x="765" y="899.891">JWT issuer /&#10;</tspan><tspan x="765" y="919.491">audience</tspan></text>
<text fill="#232F3E" style="white-space: pre" xml:space="preserve" font-family="Inter, 'Helvetica Neue', Helvetica, Arial, sans-serif" font-size="15" letter-spacing="0em"><tspan x="381" y="978.955">Bearer JWT &#xb7; JSON requests / responses</tspan></text>
<path d="M865 864V950" stroke="#414750" stroke-width="2" stroke-dasharray="3 5"/>
<text fill="black" style="white-space: pre" xml:space="preserve" font-family="Inter, 'Helvetica Neue', Helvetica, Arial, sans-serif" font-size="20" letter-spacing="0em"><tspan x="330" y="204.273">AWS Cloud</tspan></text>
<text fill="black" style="white-space: pre" xml:space="preserve" font-family="Inter, 'Helvetica Neue', Helvetica, Arial, sans-serif" font-size="18" letter-spacing="0em"><tspan x="750" y="270.545">Region &#xb7; us-east-1</tspan></text>
<text fill="black" style="white-space: pre" xml:space="preserve" font-family="Inter, 'Helvetica Neue', Helvetica, Arial, sans-serif" font-size="16" letter-spacing="0em"><tspan x="400" y="321.318">Global edge services</tspan></text>
<g clip-path="url(#clip13_0_1)">
<path d="M320 170H280V210H320V170Z" fill="#242F3E"/>
<path fill-rule="evenodd" clip-rule="evenodd" d="M312.698 193.901C313.059 194.37 312.298 196.3 311.957 197.164C311.853 197.426 312.075 197.529 312.307 197.332C313.82 196.048 314.212 193.357 313.901 192.969C313.594 192.583 310.95 192.252 309.338 193.401C309.089 193.578 309.132 193.822 309.407 193.79C310.315 193.678 312.338 193.433 312.698 193.901ZM311.856 195.91C312.374 195.532 311.93 194.969 311.402 195.19C307.889 196.654 304.075 197.363 300.602 197.363C295.459 197.363 290.475 195.974 286.446 193.668C286.094 193.466 285.833 193.823 286.127 194.082C289.86 197.398 294.796 199.391 300.274 199.391C304.184 199.391 308.725 198.183 311.856 195.91ZM309.712 190.695C309.214 190.695 308.727 190.642 308.253 190.534C307.777 190.425 307.413 190.302 307.16 190.161C307.005 190.077 306.908 189.989 306.869 189.903C306.831 189.815 306.811 189.729 306.811 189.643V189.174C306.811 188.98 306.884 188.881 307.027 188.881C307.082 188.881 307.14 188.894 307.2 188.914C307.261 188.937 307.341 188.969 307.441 189.012C307.761 189.153 308.108 189.26 308.485 189.336C308.861 189.411 309.236 189.449 309.611 189.449C310.208 189.449 310.669 189.347 310.995 189.141C311.322 188.937 311.484 188.646 311.484 188.268C311.484 188.008 311.399 187.793 311.227 187.619C311.056 187.445 310.738 187.286 310.275 187.134L308.9 186.713C308.203 186.497 307.698 186.184 307.383 185.775C307.068 185.363 306.911 184.916 306.911 184.428C306.911 184.041 306.996 183.699 307.169 183.401C307.339 183.104 307.564 182.851 307.845 182.64C308.13 182.43 308.459 182.272 308.834 182.162C309.208 182.055 309.606 182 310.026 182C310.236 182 310.449 182.014 310.666 182.041C310.881 182.067 311.085 182.103 311.278 182.146C311.471 182.191 311.651 182.239 311.816 182.292C311.982 182.347 312.114 182.401 312.215 182.454C312.346 182.529 312.439 182.605 312.496 182.681C312.551 182.756 312.579 182.858 312.579 182.989V183.425C312.579 183.62 312.507 183.716 312.362 183.716C312.285 183.716 312.165 183.68 311.998 183.604C311.458 183.365 310.848 183.248 310.177 183.248C309.635 183.248 309.214 183.334 308.916 183.506C308.617 183.68 308.468 183.955 308.468 184.333C308.468 184.591 308.562 184.81 308.751 184.988C308.939 185.166 309.286 185.336 309.795 185.499L311.137 185.921C311.822 186.135 312.311 186.433 312.603 186.809C312.897 187.188 313.044 187.619 313.044 188.104C313.044 188.505 312.961 188.864 312.794 189.182C312.628 189.501 312.399 189.772 312.105 189.999C311.813 190.226 311.463 190.398 311.054 190.517C310.644 190.637 310.197 190.695 309.712 190.695ZM297.547 190.451C297.381 190.451 297.26 190.424 297.182 190.364C297.104 190.303 297.038 190.183 296.983 189.999L294.761 182.842C294.708 182.658 294.679 182.535 294.679 182.471C294.679 182.32 294.757 182.244 294.912 182.244H295.839C296.016 182.244 296.14 182.274 296.213 182.334C296.284 182.392 296.347 182.512 296.402 182.698L297.993 188.818L299.47 182.698C299.514 182.512 299.574 182.392 299.651 182.334C299.728 182.274 299.855 182.244 300.031 182.244H300.796C300.971 182.244 301.098 182.274 301.176 182.334C301.253 182.392 301.314 182.512 301.358 182.698L302.851 188.899L304.491 182.698C304.546 182.512 304.609 182.392 304.681 182.334C304.754 182.274 304.877 182.244 305.054 182.244H305.932C306.088 182.244 306.165 182.32 306.165 182.471C306.165 182.512 306.158 182.562 306.149 182.615C306.136 182.671 306.116 182.746 306.081 182.842L303.795 189.999C303.74 190.183 303.673 190.303 303.595 190.364C303.518 190.424 303.396 190.451 303.231 190.451H302.418C302.242 190.451 302.115 190.421 302.038 190.357C301.961 190.292 301.9 190.166 301.856 189.984L300.38 184.024L298.923 189.984C298.879 190.166 298.817 190.292 298.74 190.357C298.662 190.421 298.536 190.451 298.359 190.451H297.547ZM289.939 189.449C290.25 189.449 290.575 189.392 290.918 189.279C291.26 189.165 291.558 188.969 291.812 188.687C291.968 188.515 292.074 188.318 292.136 188.096C292.196 187.876 292.225 187.609 292.225 187.295V186.907C291.951 186.842 291.661 186.791 291.356 186.753C291.052 186.716 290.757 186.696 290.469 186.696C289.84 186.696 289.369 186.82 289.061 187.069C288.752 187.317 288.596 187.672 288.596 188.139C288.596 188.57 288.713 188.895 288.945 189.117C289.177 189.339 289.509 189.449 289.939 189.449ZM293.785 188.041C293.785 188.386 293.82 188.66 293.892 188.866C293.965 189.072 294.067 189.294 294.199 189.53C294.243 189.606 294.265 189.676 294.265 189.739C294.265 189.838 294.204 189.93 294.083 190.015L293.486 190.405C293.398 190.458 293.315 190.486 293.238 190.486C293.137 190.486 293.044 190.443 292.956 190.357C292.822 190.226 292.71 190.084 292.617 189.927C292.521 189.771 292.425 189.588 292.326 189.383C291.585 190.236 290.658 190.663 289.542 190.663C288.746 190.663 288.116 190.443 287.651 189.999C287.188 189.557 286.956 188.963 286.956 188.219C286.956 187.432 287.243 186.796 287.819 186.316C288.392 185.836 289.167 185.595 290.138 185.595C290.459 185.595 290.793 185.62 291.141 185.668C291.488 185.716 291.851 185.785 292.225 185.871V185.192C292.225 184.49 292.078 183.996 291.779 183.709C291.481 183.423 290.968 183.281 290.239 183.281C289.906 183.281 289.566 183.32 289.218 183.401C288.871 183.482 288.53 183.587 288.199 183.716C288.044 183.781 287.933 183.822 287.868 183.838C287.802 183.854 287.752 183.862 287.719 183.862C287.587 183.862 287.519 183.766 287.519 183.57V183.118C287.519 182.966 287.543 182.858 287.587 182.795C287.631 182.729 287.719 182.664 287.852 182.6C288.183 182.437 288.581 182.297 289.044 182.179C289.509 182.06 290 182 290.52 182C291.646 182 292.472 182.253 292.997 182.753C293.521 183.255 293.785 184.013 293.785 185.028V188.041Z" fill="white"/>
</g>
<g clip-path="url(#clip14_0_1)">
<path d="M740 240H700V280H740V240Z" fill="#00A4A6"/>
<path fill-rule="evenodd" clip-rule="evenodd" d="M714 260.026V251.026H729.293L725.146 255.172C724.951 255.368 724.951 255.684 725.146 255.88L729.293 260.026H714ZM726.207 255.526L730.854 250.88C730.996 250.736 731.039 250.522 730.962 250.335C730.885 250.148 730.702 250.026 730.5 250.026H714V248.97C714.596 248.76 715.026 248.198 715.026 247.531C715.026 246.687 714.34 246 713.495 246C712.65 246 711.963 246.687 711.963 247.531C711.963 248.201 712.398 248.766 713 248.973V273.026H710V274.026H717V273.026H714V261.026H730.5C730.702 261.026 730.885 260.904 730.962 260.717C731.039 260.53 730.996 260.316 730.854 260.172L726.207 255.526Z" fill="white"/>
</g>
<g clip-path="url(#clip15_0_1)">
<path fill-rule="evenodd" clip-rule="evenodd" d="M138.299 838.773V840.696C138.299 841.134 137.945 841.49 137.506 841.49H126.762C126.323 841.49 125.968 841.134 125.968 840.696V838.773C125.968 838.335 126.323 837.98 126.762 837.98H137.506C137.945 837.98 138.299 838.335 138.299 838.773ZM139.797 842.399C139.797 842.754 139.508 843.044 139.153 843.044H100.645C100.289 843.044 100 842.754 100 842.399V837.011C100 836.656 100.289 836.367 100.645 836.367H139.153C139.508 836.367 139.797 836.656 139.797 837.011V842.399ZM139.153 834.367H100.645C99.187 834.367 98 835.553 98 837.011V842.399C98 843.857 99.187 845.044 100.645 845.044H139.153C140.611 845.044 141.797 843.857 141.797 842.399V837.011C141.797 835.553 140.611 834.367 139.153 834.367ZM103.501 827.21H136.264V807.502H103.501V827.21ZM136.842 805.502H102.924C102.14 805.502 101.501 806.139 101.501 806.923V827.788C101.501 828.572 102.14 829.21 102.924 829.21H136.842C137.626 829.21 138.264 828.572 138.264 827.788V806.923C138.264 806.139 137.626 805.502 136.842 805.502ZM139.797 830.067C139.797 830.422 139.508 830.711 139.153 830.711H100.645C100.289 830.711 100 830.422 100 830.067V804.644C100 804.289 100.289 804 100.645 804H139.153C139.508 804 139.797 804.289 139.797 804.644V830.067ZM139.153 802H100.645C99.187 802 98 803.186 98 804.644V830.067C98 831.525 99.187 832.711 100.645 832.711H139.153C140.611 832.711 141.797 831.525 141.797 830.067V804.644C141.797 803.186 140.611 802 139.153 802Z" fill="#232F3D"/>
<text fill="#232F3E" style="white-space: pre" xml:space="preserve" font-family="Inter, 'Helvetica Neue', Helvetica, Arial, sans-serif" font-size="16" font-weight="bold" letter-spacing="0em"><tspan x="67.4609" y="872.018">User browser</tspan></text>
<text fill="#232F3E" style="white-space: pre" xml:space="preserve" font-family="Inter, 'Helvetica Neue', Helvetica, Arial, sans-serif" font-size="15" letter-spacing="0em"><tspan x="62.7905" y="893.955">React / Vite SPA</tspan></text>
</g>
<g clip-path="url(#clip16_0_1)">
<g clip-path="url(#clip17_0_1)">
<path d="M520 340H440V420H520V340Z" fill="#8C4FFF"/>
<path fill-rule="evenodd" clip-rule="evenodd" d="M495.122 392.123C495.122 390.469 493.776 389.123 492.122 389.123C490.468 389.123 489.122 390.469 489.122 392.123C489.122 393.777 490.468 395.123 492.122 395.123C493.776 395.123 495.122 393.777 495.122 392.123ZM497.122 392.123C497.122 394.88 494.879 397.123 492.122 397.123C489.365 397.123 487.122 394.88 487.122 392.123C487.122 389.366 489.365 387.123 492.122 387.123C494.879 387.123 497.122 389.366 497.122 392.123ZM470.392 377.692C470.392 376.038 469.046 374.692 467.392 374.692C465.737 374.692 464.392 376.038 464.392 377.692C464.392 379.346 465.737 380.692 467.392 380.692C469.046 380.692 470.392 379.346 470.392 377.692ZM472.392 377.692C472.392 380.449 470.148 382.692 467.392 382.692C464.635 382.692 462.392 380.449 462.392 377.692C462.392 374.935 464.635 372.692 467.392 372.692C470.148 372.692 472.392 374.935 472.392 377.692ZM479.73 362.007C479.73 363.661 481.076 365.007 482.73 365.007C484.385 365.007 485.73 363.661 485.73 362.007C485.73 360.352 484.385 359.007 482.73 359.007C481.076 359.007 479.73 360.352 479.73 362.007ZM477.73 362.007C477.73 359.25 479.974 357.007 482.73 357.007C485.487 357.007 487.73 359.25 487.73 362.007C487.73 364.764 485.487 367.007 482.73 367.007C479.974 367.007 477.73 364.764 477.73 362.007ZM506 380C506 370.727 501.028 362.148 493.012 357.509C491.575 357.799 490.185 358.196 488.451 358.823L487.771 356.942C488.676 356.616 489.486 356.352 490.266 356.126C487.046 354.737 483.548 354 480 354C478.311 354 476.649 354.175 475.025 354.492C476.201 355.18 477.244 355.866 478.257 356.634L477.048 358.227C475.62 357.145 474.14 356.228 472.197 355.21C462.378 358.298 455.306 366.958 454.183 377.128C456.242 376.711 458.219 376.484 460.414 376.43L460.463 378.429C458.163 378.486 456.187 378.73 454.027 379.205C454.018 379.47 454 379.738 454 380C454 388.658 458.283 396.636 465.327 401.447C464.074 397.716 463.45 394.19 463.45 390.746C463.45 388.782 463.788 387.169 464.145 385.462C464.228 385.067 464.312 384.665 464.394 384.248L466.357 384.635C466.273 385.059 466.187 385.47 466.103 385.873C465.753 387.545 465.45 388.989 465.45 390.746C465.45 394.654 466.308 398.695 468.054 403.083C471.773 405.014 475.789 406 480 406C482.756 406 485.446 405.56 488.012 404.714C489.019 402.727 489.766 400.852 490.39 398.699L492.311 399.256C491.855 400.826 491.332 402.253 490.709 403.677C492.323 402.951 493.85 402.053 495.283 401.005C494.938 400.159 494.568 399.318 494.159 398.499L495.948 397.604C496.296 398.3 496.615 399.012 496.92 399.728C502.705 394.775 506 387.66 506 380ZM508 380C508 388.727 504.034 396.799 497.121 402.149C495.409 403.479 493.552 404.583 491.589 405.472C490.756 405.85 489.908 406.2 489.036 406.494C486.156 407.493 483.113 408 480 408C475.4 408 470.832 406.854 466.788 404.686C457.667 399.806 452 390.347 452 380C452 379.314 452.018 378.792 452.059 378.309C452.74 366.625 460.756 356.512 472.001 353.166C474.562 352.393 477.255 352 480 352C484.808 352 489.539 353.238 493.684 355.579C502.513 360.525 508 369.884 508 380ZM477.314 365.463L476 363.956C473.758 365.912 472.014 367.989 469.977 371.126L471.655 372.215C473.583 369.244 475.223 367.288 477.314 365.463ZM474.275 378.427L473.625 380.318C478.218 381.895 482.225 384.411 486.234 388.236L487.615 386.789C483.389 382.758 479.15 380.101 474.275 378.427ZM487.646 366.668C491.398 372.39 493.511 378.671 493.925 385.338L491.929 385.462C491.536 379.146 489.533 373.192 485.975 367.765L487.646 366.668Z" fill="white"/>
</g>
<text fill="#232F3E" style="white-space: pre" xml:space="preserve" font-family="Inter, 'Helvetica Neue', Helvetica, Arial, sans-serif" font-size="16" font-weight="bold" letter-spacing="0em"><tspan x="402.062" y="444.018">Amazon CloudFront</tspan></text>
<text fill="#232F3E" style="white-space: pre" xml:space="preserve" font-family="Inter, 'Helvetica Neue', Helvetica, Arial, sans-serif" font-size="15" letter-spacing="0em"><tspan x="388.616" y="465.955">HTTPS &#xb7; static application</tspan></text>
</g>
<g clip-path="url(#clip18_0_1)">
<g clip-path="url(#clip19_0_1)">
<path d="M412 550H332V630H412V550Z" fill="#DD344C"/>
<path fill-rule="evenodd" clip-rule="evenodd" d="M346.396 591H344V589H346.399C346.599 583.941 348.239 579.128 351.208 575.025L352.829 576.198C350.108 579.957 348.598 584.366 348.399 589H351V591H348.396C348.582 595.662 350.093 600.097 352.829 603.876L351.208 605.049C348.224 600.926 346.583 596.085 346.396 591ZM387.01 610.828C382.898 613.805 378.072 615.445 373 615.639V618H371V615.639C365.928 615.445 361.1 613.805 356.988 610.828L358.16 609.208C361.93 611.937 366.352 613.447 371 613.639V611H373V613.639C377.648 613.446 382.069 611.936 385.838 609.208L387.01 610.828ZM356.988 569.246C361.1 566.269 365.928 564.629 371 564.436V562H373V564.436C378.072 564.629 382.898 566.27 387.01 569.246L385.838 570.866C382.069 568.138 377.648 566.628 373 566.436V569H371V566.436C366.352 566.627 361.93 568.138 358.16 570.866L356.988 569.246ZM400 589V591H397.602C397.416 596.085 395.774 600.926 392.791 605.049L391.169 603.876C393.905 600.097 395.417 595.662 395.602 591H393V589H395.599C395.4 584.366 393.89 579.957 391.169 576.198L392.791 575.025C395.759 579.128 397.399 583.941 397.599 589H400ZM386.972 573.65L394.812 565.81L396.226 567.224L388.386 575.064L386.972 573.65ZM357.026 606.424L349.186 614.264L347.772 612.85L355.612 605.01L357.026 606.424ZM359.252 578.667L344.412 563.827L345.826 562.413L360.667 577.253L359.252 578.667ZM384.707 601.293L399.586 616.173L398.172 617.587L383.292 602.708L384.707 601.293ZM363.664 590.735C363.739 590.602 363.82 590.468 363.905 590.334C365.586 587.693 365.104 584.089 364.57 581.912C366.011 582.859 367.31 584.816 367.753 585.638C367.942 585.986 368.309 586.197 368.712 586.161C369.107 586.13 369.446 585.87 369.578 585.497C371.067 581.267 370.31 578.087 369.26 576.026C370.533 576.767 371.519 577.833 372.172 579.192C373.588 582.134 373.273 586.161 371.348 589.7C368.719 594.536 369.246 599.606 369.844 602.334C368.343 601.687 367.007 600.956 365.854 600.152C362.827 598.042 361.864 593.907 363.664 590.735ZM377.094 590.398C377.029 590.807 377.221 591.214 377.579 591.422C377.936 591.629 378.386 591.596 378.709 591.336C378.79 591.271 380.43 589.917 381.224 586.642C382.181 588.034 383.182 590.843 381.85 596.003C380.532 601.108 374.28 602.544 372.049 602.897C371.51 600.964 370.417 595.599 373.106 590.655C375.014 587.145 375.52 583.176 374.564 579.901C376.374 582.027 377.901 585.373 377.094 590.398ZM361.922 589.75C359.62 593.81 360.844 599.099 364.71 601.793C366.46 603.013 368.58 604.072 371.01 604.941C371.121 604.981 371.234 605 371.347 605C371.368 605 371.386 604.989 371.406 604.988L371.407 604.997C371.832 604.964 381.826 604.096 383.786 596.503C386.308 586.737 381.257 583.84 381.041 583.721C380.748 583.561 380.393 583.557 380.096 583.712C379.799 583.868 379.6 584.162 379.566 584.495C379.495 585.17 379.384 585.771 379.25 586.302C378.558 578.634 372.479 575.514 371.25 574.959C369.99 573.994 368.458 573.331 366.682 573.016C366.236 572.935 365.794 573.168 365.604 573.578C365.412 573.987 365.521 574.477 365.867 574.768C366.017 574.895 369.133 577.597 368.244 582.739C367.083 581.216 365.235 579.38 363.061 579.38C362.731 579.38 362.423 579.543 362.237 579.815C362.05 580.087 362.01 580.434 362.128 580.741C362.15 580.795 364.188 586.166 362.217 589.261C362.113 589.425 362.014 589.589 361.922 589.75Z" fill="white"/>
</g>
<text fill="#232F3E" style="white-space: pre" xml:space="preserve" font-family="Inter, 'Helvetica Neue', Helvetica, Arial, sans-serif" font-size="16" font-weight="bold" letter-spacing="0em"><tspan x="332.906" y="654.018">AWS WAF</tspan></text>
<text fill="#232F3E" style="white-space: pre" xml:space="preserve" font-family="Inter, 'Helvetica Neue', Helvetica, Arial, sans-serif" font-size="15" letter-spacing="0em"><tspan x="299.036" y="675.955">Associated web ACL&#10;</tspan><tspan x="323.514" y="696.955">Supplied ARN</tspan></text>
</g>
<g clip-path="url(#clip20_0_1)">
<path fill-rule="evenodd" clip-rule="evenodd" d="M597.9 583.508C597.014 583.508 596.294 582.787 596.294 581.901C596.294 581.015 597.014 580.294 597.9 580.294C598.787 580.294 599.507 581.015 599.507 581.901C599.507 582.787 598.787 583.508 597.9 583.508ZM597.9 578.294C595.912 578.294 594.294 579.912 594.294 581.901C594.294 583.89 595.912 585.508 597.9 585.508C599.889 585.508 601.507 583.89 601.507 581.901C601.507 579.912 599.889 578.294 597.9 578.294ZM581.782 574.103C580.896 574.103 580.175 573.382 580.175 572.496C580.175 571.61 580.896 570.889 581.782 570.889C582.669 570.889 583.389 571.61 583.389 572.496C583.389 573.382 582.669 574.103 581.782 574.103ZM581.782 568.889C579.794 568.889 578.175 570.507 578.175 572.496C578.175 574.485 579.794 576.103 581.782 576.103C583.771 576.103 585.389 574.485 585.389 572.496C585.389 570.507 583.771 568.889 581.782 568.889ZM591.779 560.666C592.666 560.666 593.386 561.387 593.386 562.273C593.386 563.159 592.666 563.88 591.779 563.88C590.893 563.88 590.172 563.159 590.172 562.273C590.172 561.387 590.893 560.666 591.779 560.666ZM591.779 565.88C593.768 565.88 595.386 564.262 595.386 562.273C595.386 560.284 593.768 558.666 591.779 558.666C589.791 558.666 588.172 560.284 588.172 562.273C588.172 564.262 589.791 565.88 591.779 565.88ZM584.853 569.116L583.175 568.027C584.521 565.953 585.676 564.578 587.164 563.281L588.478 564.788C587.141 565.954 586.09 567.208 584.853 569.116ZM595.203 578.173L593.822 579.62C591.246 577.162 588.675 575.547 585.732 574.537L586.38 572.645C589.607 573.753 592.41 575.509 595.203 578.173ZM595.274 565.12C597.754 568.902 599.149 573.052 599.422 577.458L597.426 577.582C597.175 573.528 595.888 569.704 593.602 566.217L595.274 565.12ZM610 577.115L607.572 576.977C607.109 576.945 606.647 577.278 606.54 577.756C606.117 579.63 605.38 581.409 604.351 583.043C604.09 583.456 604.167 583.997 604.531 584.322L606.344 585.94L601.94 590.345L601.161 589.472C601.693 587.536 600.752 585.589 600.706 585.498L598.915 586.389C598.921 586.402 599.341 587.282 599.336 588.24C599.236 588.265 599.137 588.3 599.046 588.358C598.529 588.685 597.992 588.971 597.445 589.238C597.796 588.383 598.107 587.512 598.357 586.647L596.437 586.09C596.026 587.507 595.449 588.948 594.772 590.275C594.435 590.373 594.098 590.473 593.754 590.55C593.277 590.658 592.948 591.095 592.976 591.583L593.115 594H586.884L587.023 591.581C587.051 591.093 586.722 590.656 586.246 590.549C584.969 590.26 583.743 589.815 582.571 589.242C581.488 586.464 580.865 583.484 580.865 581.003C580.865 579.894 581.059 578.968 581.284 577.897L581.45 577.088L579.487 576.701L579.326 577.486C579.088 578.618 578.865 579.687 578.865 581.003C578.865 583.214 579.311 585.773 580.105 588.266C579.946 588.32 579.795 588.401 579.675 588.534L578.06 590.345L573.655 585.94L575.465 584.325C575.83 584 575.906 583.459 575.645 583.046C574.617 581.416 573.88 579.636 573.457 577.756C573.349 577.278 572.884 576.945 572.424 576.977L570 577.115V570.885L572.431 571.024C572.884 571.048 573.354 570.723 573.463 570.246C573.887 568.373 574.626 566.597 575.656 564.966C575.917 564.552 575.84 564.011 575.476 563.686L573.655 562.061L578.06 557.655L579.684 559.475C580.009 559.84 580.552 559.915 580.963 559.655C582.071 558.958 583.25 558.406 584.478 557.984C585.428 558.482 586.712 559.213 587.865 560.088L589.074 558.494C588.348 557.943 587.581 557.45 586.861 557.023C586.969 556.852 587.036 556.652 587.023 556.437L586.884 554H593.115L592.976 556.439C592.948 556.927 593.277 557.363 593.754 557.471C594.562 557.654 595.348 557.906 596.117 558.204C595.996 558.25 595.872 558.296 595.754 558.341C595.478 558.447 595.207 558.55 594.946 558.645L595.626 560.526C595.898 560.427 596.18 560.32 596.468 560.21C597.214 559.925 597.979 559.639 598.694 559.465C598.806 559.531 598.922 559.589 599.033 559.659C599.444 559.918 599.987 559.844 600.312 559.479L601.939 557.655L606.344 562.061L604.527 563.682C604.163 564.008 604.087 564.549 604.347 564.962C605.377 566.593 606.114 568.37 606.538 570.246C606.645 570.722 607.109 571.048 607.57 571.024L610 570.885V577.115ZM611.686 569.099C611.487 568.91 611.215 568.814 610.943 568.828L608.283 568.98C607.866 567.457 607.26 565.998 606.476 564.624L608.466 562.848C608.671 562.665 608.793 562.405 608.8 562.131C608.808 561.856 608.702 561.59 608.507 561.395L602.605 555.493C602.411 555.298 602.144 555.194 601.87 555.2C601.594 555.208 601.336 555.329 601.152 555.534L599.371 557.53C597.999 556.747 596.541 556.143 595.02 555.727L595.171 553.057C595.187 552.782 595.089 552.513 594.9 552.314C594.712 552.113 594.449 552 594.173 552H585.826C585.55 552 585.288 552.113 585.099 552.314C584.91 552.513 584.812 552.782 584.828 553.057L584.979 555.724C583.458 556.14 581.999 556.744 580.626 557.527L578.847 555.534C578.664 555.329 578.405 555.208 578.129 555.2C577.861 555.196 577.588 555.298 577.394 555.493L571.492 561.395C571.297 561.59 571.191 561.856 571.199 562.131C571.207 562.405 571.328 562.665 571.533 562.848L573.527 564.627C572.742 566.001 572.136 567.459 571.719 568.98L569.056 568.828C568.781 568.813 568.512 568.91 568.313 569.099C568.113 569.288 568 569.551 568 569.826V578.174C568 578.449 568.113 578.712 568.313 578.901C568.512 579.09 568.782 579.19 569.056 579.173L571.712 579.021C572.128 580.548 572.733 582.009 573.516 583.384L571.533 585.153C571.328 585.336 571.207 585.595 571.199 585.87C571.191 586.145 571.297 586.411 571.492 586.606L577.394 592.508C577.588 592.703 577.859 592.816 578.129 592.8C578.405 592.793 578.665 592.672 578.847 592.466L580.617 590.484C581.994 591.269 583.455 591.876 584.979 592.293L584.828 594.943C584.812 595.217 584.91 595.487 585.098 595.687C585.288 595.887 585.55 596 585.826 596H594.173C594.449 596 594.712 595.887 594.901 595.687C595.089 595.487 595.187 595.217 595.171 594.943L595.02 592.296C596.547 591.878 598.01 591.272 599.385 590.487L601.152 592.466C601.335 592.672 601.594 592.793 601.87 592.8C602.147 592.819 602.411 592.703 602.605 592.508L608.507 586.606C608.702 586.411 608.808 586.145 608.8 585.87C608.793 585.595 608.671 585.336 608.466 585.153L606.48 583.381C607.264 582.005 607.869 580.544 608.285 579.021L610.943 579.173C611.214 579.189 611.487 579.09 611.686 578.901C611.886 578.712 612 578.449 612 578.174V569.826C612 569.551 611.886 569.288 611.686 569.099Z" fill="#8C4FFF"/>
<text fill="#232F3E" style="white-space: pre" xml:space="preserve" font-family="Inter, 'Helvetica Neue', Helvetica, Arial, sans-serif" font-size="16" font-weight="bold" letter-spacing="0em"><tspan x="511.406" y="622.018">CloudFront function</tspan></text>
<text fill="#232F3E" style="white-space: pre" xml:space="preserve" font-family="Inter, 'Helvetica Neue', Helvetica, Arial, sans-serif" font-size="15" letter-spacing="0em"><tspan x="495.195" y="643.955">Security response headers</tspan></text>
</g>
<g clip-path="url(#clip21_0_1)">
<g clip-path="url(#clip22_0_1)">
<path d="M900 340H820V420H900V340Z" fill="#7AA116"/>
<path fill-rule="evenodd" clip-rule="evenodd" d="M880.836 382.893L881.22 380.189C884.761 382.31 884.807 383.186 884.806 383.21C884.8 383.215 884.196 383.719 880.836 382.893ZM878.893 382.353C872.773 380.501 864.25 376.591 860.801 374.961C860.801 374.947 860.805 374.934 860.805 374.92C860.805 373.595 859.727 372.517 858.401 372.517C857.077 372.517 855.999 373.595 855.999 374.92C855.999 376.245 857.077 377.323 858.401 377.323C858.983 377.323 859.511 377.106 859.928 376.761C863.986 378.682 872.443 382.535 878.608 384.355L876.17 401.561C876.163 401.608 876.16 401.655 876.16 401.702C876.16 403.217 869.453 406 858.494 406C847.419 406 840.641 403.217 840.641 401.702C840.641 401.656 840.638 401.611 840.632 401.566L835.538 364.359C839.947 367.394 849.43 369 858.5 369C867.556 369 877.023 367.4 881.441 364.374L878.893 382.353ZM835 360.478C835.072 359.162 842.634 354 858.5 354C874.364 354 881.927 359.161 882 360.478V360.927C881.13 363.878 871.33 367 858.5 367C845.648 367 835.843 363.868 835 360.913V360.478ZM884 360.5C884 357.035 874.066 352 858.5 352C842.934 352 833 357.035 833 360.5L833.094 361.254L838.642 401.778C838.775 406.31 850.861 408 858.494 408C867.966 408 878.029 405.822 878.159 401.781L880.555 384.884C881.888 385.203 882.985 385.366 883.866 385.366C885.049 385.366 885.849 385.077 886.334 384.499C886.732 384.025 886.884 383.451 886.77 382.84C886.511 381.456 884.868 379.964 881.522 378.055L883.898 361.293L884 360.5Z" fill="white"/>
</g>
<text fill="#232F3E" style="white-space: pre" xml:space="preserve" font-family="Inter, 'Helvetica Neue', Helvetica, Arial, sans-serif" font-size="16" font-weight="bold" letter-spacing="0em"><tspan x="815.383" y="444.018">Amazon S3</tspan></text>
<text fill="#232F3E" style="white-space: pre" xml:space="preserve" font-family="Inter, 'Helvetica Neue', Helvetica, Arial, sans-serif" font-size="15" letter-spacing="0em"><tspan x="776.599" y="465.955">Private frontend bucket&#10;</tspan><tspan x="795.291" y="486.955">React build assets</tspan></text>
</g>
<g clip-path="url(#clip23_0_1)">
<g clip-path="url(#clip24_0_1)">
<path d="M905 704H825V784H905V704Z" fill="#DD344C"/>
<path fill-rule="evenodd" clip-rule="evenodd" d="M841.964 739.808H854.869V737.825H841.964V739.808ZM886.376 754.231L887.779 755.633L880.407 762.994C880.213 763.187 879.959 763.284 879.705 763.284C879.451 763.284 879.197 763.187 879.004 762.994L875.295 759.291L876.699 757.89L879.705 760.891L886.376 754.231ZM890.944 759.694C890.718 761.557 889.959 763.291 888.747 764.709C887.886 765.716 886.799 766.548 885.604 767.115C884.001 767.876 882.22 768.164 880.446 767.948C878.721 767.738 877.095 767.058 875.74 765.982C873.137 763.916 871.822 760.711 872.222 757.409C872.601 754.288 874.492 751.566 877.28 750.127C878.616 749.438 880.08 749.084 881.57 749.084C881.952 749.084 882.337 749.108 882.721 749.155C885.834 749.534 888.55 751.437 889.981 754.243C890.84 755.926 891.172 757.811 890.944 759.694ZM891.75 753.344C890.018 749.948 886.732 747.646 882.962 747.187C880.681 746.908 878.403 747.317 876.369 748.366C872.996 750.106 870.709 753.398 870.251 757.171C869.768 761.161 871.358 765.036 874.505 767.535C876.146 768.837 878.117 769.661 880.205 769.916C880.667 769.972 881.13 770 881.592 770C883.271 770 884.93 769.629 886.456 768.906C887.902 768.22 889.218 767.213 890.257 765.995C891.723 764.28 892.643 762.184 892.916 759.932C893.191 757.657 892.788 755.379 891.75 753.344ZM851.891 745.756H855.862V743.773H851.891V745.756ZM841.964 745.756H849.905V743.773H841.964V745.756ZM841.106 719.983H885.508C886.677 719.983 887.628 721.139 887.628 722.561V729.895H884.65V724.939C884.65 724.392 884.206 723.948 883.657 723.948H860.825C860.276 723.948 859.832 724.392 859.832 724.939V729.895H838.985V722.561C838.985 721.163 839.957 719.983 841.106 719.983ZM872.256 729.608C874.561 729.608 876.436 731.461 876.436 733.739C876.436 735.241 875.608 736.623 874.273 737.347C873.007 738.034 871.48 738.025 870.23 737.348C868.901 736.622 868.076 735.24 868.076 733.739C868.076 731.461 869.95 729.608 872.256 729.608ZM838.985 751.108V731.878H859.832V748.729C859.832 749.278 860.276 749.721 860.825 749.721H871.203V747.738H862.912C862.998 743.771 865.636 740.344 869.434 739.25C871.189 740.07 873.285 740.078 875.067 739.249C877.229 739.873 879.121 741.318 880.293 743.254L881.992 742.227C880.789 740.243 878.963 738.695 876.845 737.795C877.838 736.694 878.422 735.263 878.422 733.739C878.422 730.368 875.655 727.625 872.256 727.625C868.856 727.625 866.09 730.368 866.09 733.739C866.09 735.257 866.668 736.683 867.654 737.784C865 738.9 862.928 740.992 861.818 743.573V725.93H882.665V741.79H884.65V731.878H887.628L887.629 746.747H889.615L889.614 722.561C889.614 720.046 887.772 718 885.508 718H841.106C838.841 718 837 720.046 837 722.561V751.108C837 753.623 838.841 755.668 841.106 755.668H867.774V753.686H841.106C839.957 753.686 838.985 752.506 838.985 751.108Z" fill="white"/>
</g>
<text fill="#232F3E" style="white-space: pre" xml:space="preserve" font-family="Inter, 'Helvetica Neue', Helvetica, Arial, sans-serif" font-size="16" font-weight="bold" letter-spacing="0em"><tspan x="799.789" y="808.018">Amazon Cognito</tspan></text>
<text fill="#232F3E" style="white-space: pre" xml:space="preserve" font-family="Inter, 'Helvetica Neue', Helvetica, Arial, sans-serif" font-size="15" letter-spacing="0em"><tspan x="771.499" y="829.955">Amazon Cognito user pool&#10;</tspan><tspan x="782.588" y="850.955">Email verification &#xb7; JWT</tspan></text>
</g>
<text fill="#232F3E" style="white-space: pre" xml:space="preserve" font-family="Inter, 'Helvetica Neue', Helvetica, Arial, sans-serif" font-size="15" font-weight="bold" letter-spacing="0em"><tspan x="50" y="1825.95">SUPPORTING CONTROLS</tspan></text>
<g clip-path="url(#clip25_0_1)">
<g clip-path="url(#clip26_0_1)">
<path d="M520 1815H440V1895H520V1815Z" fill="#DD344C"/>
<path fill-rule="evenodd" clip-rule="evenodd" d="M454 1874H506V1836H454V1874ZM508 1835V1875C508 1875.55 507.553 1876 507 1876H453C452.447 1876 452 1875.55 452 1875V1835C452 1834.45 452.447 1834 453 1834H507C507.553 1834 508 1834.45 508 1835ZM484 1863H499V1861H484V1863ZM497 1857H502V1855H497V1857ZM484 1857H492V1855H484V1857ZM469 1861C469 1860.45 468.552 1860 468 1860C467.448 1860 467 1860.45 467 1861C467 1861.55 467.448 1862 468 1862C468.552 1862 469 1861.55 469 1861ZM471 1861C471 1862.3 470.161 1863.4 469 1863.82V1866H467V1863.81C465.839 1863.4 465 1862.3 465 1861C465 1859.35 466.346 1858 468 1858C469.654 1858 471 1859.35 471 1861ZM459 1868.99L476.994 1869L476.996 1865H473V1863H476.996L476.998 1860H473V1858H476.999L477 1855.01L459.006 1855L459 1868.99ZM462 1853L474 1853.01V1846C474.001 1843.7 471.197 1841.68 468 1841.67H467.996C464.804 1841.67 462.004 1843.7 462.002 1846L462 1853ZM457 1869.99L457.006 1854C457.006 1853.73 457.111 1853.48 457.299 1853.29C457.486 1853.1 457.741 1853 458.006 1853L460 1853L460.002 1846C460.004 1842.51 463.59 1839.67 467.996 1839.67H468C472.412 1839.68 476.001 1842.52 476 1846V1853.01L478 1853.01C478.553 1853.01 479 1853.46 479 1854.01L478.994 1870C478.994 1870.27 478.889 1870.52 478.701 1870.71C478.514 1870.9 478.259 1871 477.994 1871L458 1870.99C457.447 1870.99 457 1870.54 457 1869.99ZM500 1851H502V1849H500V1851ZM484 1851H495V1849H484V1851Z" fill="white"/>
</g>
<text fill="#232F3E" style="white-space: pre" xml:space="preserve" font-family="Inter, 'Helvetica Neue', Helvetica, Arial, sans-serif" font-size="16" font-weight="bold" letter-spacing="0em"><tspan x="443.727" y="1919.02">AWS IAM</tspan></text>
<text fill="#232F3E" style="white-space: pre" xml:space="preserve" font-family="Inter, 'Helvetica Neue', Helvetica, Arial, sans-serif" font-size="15" letter-spacing="0em"><tspan x="340.876" y="1940.95">One scoped execution role per Lambda</tspan></text>
</g>
<g clip-path="url(#clip27_0_1)">
<g clip-path="url(#clip28_0_1)">
<path d="M1090 1815H1010V1895H1090V1815Z" fill="#E7157B"/>
<path fill-rule="evenodd" clip-rule="evenodd" d="M1065.06 1861.78C1065.06 1857.87 1061.86 1854.69 1057.92 1854.69C1053.99 1854.69 1050.79 1857.87 1050.79 1861.78C1050.79 1865.69 1053.99 1868.87 1057.92 1868.87C1061.86 1868.87 1065.06 1865.69 1065.06 1861.78ZM1067.07 1861.78C1067.07 1866.79 1062.97 1870.86 1057.92 1870.86C1052.88 1870.86 1048.78 1866.79 1048.78 1861.78C1048.78 1856.77 1052.88 1852.69 1057.92 1852.69C1062.97 1852.69 1067.07 1856.77 1067.07 1861.78ZM1075.51 1875.47L1068.5 1869.2C1067.94 1869.99 1067.28 1870.72 1066.55 1871.36L1073.55 1877.63C1074.15 1878.17 1075.08 1878.12 1075.62 1877.53C1076.16 1876.93 1076.11 1876.01 1075.51 1875.47ZM1057.92 1872.66C1063.96 1872.66 1068.88 1867.78 1068.88 1861.78C1068.88 1855.78 1063.96 1850.89 1057.92 1850.89C1051.88 1850.89 1046.97 1855.78 1046.97 1861.78C1046.97 1867.78 1051.88 1872.66 1057.92 1872.66ZM1077.11 1878.86C1076.43 1879.62 1075.48 1880 1074.53 1880C1073.7 1880 1072.87 1879.71 1072.21 1879.12L1064.93 1872.6C1062.91 1873.9 1060.51 1874.66 1057.92 1874.66C1050.77 1874.66 1044.95 1868.88 1044.95 1861.78C1044.95 1854.67 1050.77 1848.9 1057.92 1848.9C1065.07 1848.9 1070.89 1854.67 1070.89 1861.78C1070.89 1863.82 1070.4 1865.74 1069.55 1867.45L1076.86 1873.99C1078.28 1875.27 1078.39 1877.45 1077.11 1878.86ZM1031.28 1844.39C1031.28 1844.91 1031.31 1845.43 1031.37 1845.93C1031.41 1846.21 1031.32 1846.5 1031.13 1846.71C1030.98 1846.88 1030.77 1847 1030.55 1847.03C1028.08 1847.67 1024.01 1849.59 1024.01 1855.35C1024.01 1859.69 1026.42 1862.09 1028.45 1863.34C1029.14 1863.77 1029.96 1864.01 1030.82 1864.01L1042.95 1864.03L1042.94 1866.02L1030.81 1866.01C1029.57 1866 1028.38 1865.66 1027.38 1865.03C1025.38 1863.8 1022 1860.89 1022 1855.35C1022 1848.66 1026.6 1846.19 1029.3 1845.32C1029.28 1845.01 1029.27 1844.7 1029.27 1844.39C1029.27 1838.93 1033 1833.27 1037.94 1831.22C1043.72 1828.82 1049.85 1830.01 1054.33 1834.41C1055.71 1835.77 1056.85 1837.43 1057.73 1839.35C1058.91 1838.38 1060.36 1837.85 1061.88 1837.85C1064.89 1837.85 1068.27 1840.11 1068.87 1845.06C1071.68 1845.7 1077.62 1847.96 1077.62 1855.42C1077.62 1858.4 1076.68 1860.87 1074.82 1862.74L1073.39 1861.34C1074.86 1859.85 1075.61 1857.86 1075.61 1855.42C1075.61 1848.89 1070.11 1847.27 1067.74 1846.87C1067.47 1846.83 1067.23 1846.68 1067.08 1846.45C1066.93 1846.24 1066.87 1845.97 1066.91 1845.71C1066.59 1841.66 1064.16 1839.84 1061.88 1839.84C1060.45 1839.84 1059.1 1840.54 1058.19 1841.75C1057.97 1842.04 1057.6 1842.19 1057.23 1842.14C1056.87 1842.09 1056.56 1841.84 1056.44 1841.49C1055.61 1839.23 1054.43 1837.32 1052.91 1835.83C1049.03 1832.02 1043.73 1830.98 1038.72 1833.06C1034.55 1834.79 1031.28 1839.77 1031.28 1844.39Z" fill="white"/>
</g>
<text fill="#232F3E" style="white-space: pre" xml:space="preserve" font-family="Inter, 'Helvetica Neue', Helvetica, Arial, sans-serif" font-size="16" font-weight="bold" letter-spacing="0em"><tspan x="967.523" y="1919.02">Amazon CloudWatch</tspan></text>
<text fill="#232F3E" style="white-space: pre" xml:space="preserve" font-family="Inter, 'Helvetica Neue', Helvetica, Arial, sans-serif" font-size="15" letter-spacing="0em"><tspan x="968.115" y="1940.95">Lambda execution logs</tspan></text>
</g>
<text fill="#232F3E" style="white-space: pre" xml:space="preserve" font-family="Inter, 'Helvetica Neue', Helvetica, Arial, sans-serif" font-size="16" letter-spacing="0em"><tspan x="1966" y="1580.02">Infrastructure as code: Terraform&#10;</tspan><tspan x="1966" y="1602.42">CI: GitHub Actions &#x2014; tests, lint, build, </tspan><tspan x="1966" y="1624.82">infrastructure validation</tspan></text>
<text fill="#232F3E" style="white-space: pre" xml:space="preserve" font-family="Inter, 'Helvetica Neue', Helvetica, Arial, sans-serif" font-size="14" letter-spacing="0em"><tspan x="50" y="2004.89">Code-defined architecture &#xb7; 26 September 2026 &#xb7; Region is configurable &#xb7; No VPC resources are defined</tspan></text>
<path d="M144 820H235V380H440M432.327 375.296L440 380L432.327 384.704" stroke="#414750" stroke-width="2"/>
<path d="M520 380H820M812.327 375.296L820 380L812.327 384.704" stroke="#414750" stroke-width="2"/>
<text fill="#232F3E" style="white-space: pre" xml:space="preserve" font-family="Inter, 'Helvetica Neue', Helvetica, Arial, sans-serif" font-size="15" letter-spacing="0em"><tspan x="202" y="367.955">Load app</tspan></text>
<text fill="#232F3E" style="white-space: pre" xml:space="preserve" font-family="Inter, 'Helvetica Neue', Helvetica, Arial, sans-serif" font-size="15" letter-spacing="0em"><tspan x="396" y="737.955">Sign up / sign in &#xb7; access token</tspan></text>
<rect x="396" y="342" width="32" height="29" rx="3" fill="black"/>
<text fill="white" style="white-space: pre" xml:space="preserve" font-family="Inter, 'Helvetica Neue', Helvetica, Arial, sans-serif" font-size="16" font-weight="bold" letter-spacing="0em"><tspan x="408.086" y="362.018">1</tspan></text>
<rect x="778" y="706" width="32" height="29" rx="3" fill="black"/>
<text fill="white" style="white-space: pre" xml:space="preserve" font-family="Inter, 'Helvetica Neue', Helvetica, Arial, sans-serif" font-size="16" font-weight="bold" letter-spacing="0em"><tspan x="788.961" y="726.018">2</tspan></text>
<rect x="774" y="950" width="32" height="29" rx="3" fill="black"/>
<text fill="white" style="white-space: pre" xml:space="preserve" font-family="Inter, 'Helvetica Neue', Helvetica, Arial, sans-serif" font-size="16" font-weight="bold" letter-spacing="0em"><tspan x="784.727" y="970.018">3</tspan></text>
<text fill="#232F3E" style="white-space: pre" xml:space="preserve" font-family="Inter, 'Helvetica Neue', Helvetica, Arial, sans-serif" font-size="16" font-weight="bold" letter-spacing="0em"><tspan x="1160" y="392.018">BINARY VALIDATION</tspan></text>
<text fill="#232F3E" style="white-space: pre" xml:space="preserve" font-family="Inter, 'Helvetica Neue', Helvetica, Arial, sans-serif" font-size="17" letter-spacing="0em"><tspan x="1160" y="421.082">Images: JPEG, PNG, WebP&#10;</tspan><tspan x="1160" y="444.882">Videos: MP4, WebM, MOV&#10;</tspan><tspan x="1160" y="468.682">&#10;</tspan><tspan x="1160" y="492.482">Magic-byte detection + image integrity / readable video frame&#10;</tspan><tspan x="1160" y="516.282">Maximum object size: 50 MiB</tspan></text>
<text fill="#232F3E" style="white-space: pre" xml:space="preserve" font-family="Inter, 'Helvetica Neue', Helvetica, Arial, sans-serif" font-size="16" letter-spacing="0em"><tspan x="1160" y="562.018">A single media bucket contains three prefixes.&#10;</tspan><tspan x="1160" y="584.418">Only incoming/ creates validation events.</tspan></text>
<path d="M372 540V510H482V478" stroke="#414750" stroke-width="2" stroke-dasharray="3 5"/>
<path d="M590 540V510H480" stroke="#414750" stroke-width="2" stroke-dasharray="3 5"/>
<path d="M235 750H770L820 750M812.327 745.296L820 750L812.327 754.704" stroke="#414750" stroke-width="2"/>
<path d="M820 991.704L770 991.704H235V813.5M812.327 987L820 991.704L812.327 996.408" stroke="#414750" stroke-width="2"/>
<text fill="#232F3E" style="white-space: pre" xml:space="preserve" font-family="Inter, 'Helvetica Neue', Helvetica, Arial, sans-serif" font-size="14" font-weight="bold" letter-spacing="0em"><tspan x="1160" y="294.891">CONNECTION KEY</tspan></text>
<path d="M1160 315H1210M1202.33 310.296L1210 315L1202.33 319.704" stroke="#414750" stroke-width="2"/>
<text fill="#232F3E" style="white-space: pre" xml:space="preserve" font-family="Inter, 'Helvetica Neue', Helvetica, Arial, sans-serif" font-size="14" letter-spacing="0em"><tspan x="1220" y="319.891">Request / data</tspan></text>
<path d="M1377 315H1427M1419.33 310.296L1427 315L1419.33 319.704" stroke="#414750" stroke-width="2" stroke-dasharray="8 5"/>
<text fill="#232F3E" style="white-space: pre" xml:space="preserve" font-family="Inter, 'Helvetica Neue', Helvetica, Arial, sans-serif" font-size="14" letter-spacing="0em"><tspan x="1437" y="319.891">Async event / failure</tspan></text>
<path d="M1632 315H1682" stroke="#414750" stroke-width="2" stroke-dasharray="3 5"/>
<text fill="#232F3E" style="white-space: pre" xml:space="preserve" font-family="Inter, 'Helvetica Neue', Helvetica, Arial, sans-serif" font-size="14" letter-spacing="0em"><tspan x="1694" y="319.891">Association</tspan></text>
<path d="M902.999 1457V1708L46.1455 1708V821.207H92.8153M84.9998 816.5L92.8153 821.207L84.9998 825.913" stroke="#414750" stroke-width="2"/>
<rect x="1945" y="171" width="408" height="1189" stroke="#D9DEE6" stroke-width="2"/>
<text fill="black" style="white-space: pre" xml:space="preserve" font-family="Inter, 'Helvetica Neue', Helvetica, Arial, sans-serif" font-size="24" font-weight="bold" letter-spacing="0em"><tspan x="1966" y="223.227">Request and processing flow</tspan></text>
<rect x="1966" y="255" width="32" height="29" rx="3" fill="black"/>
<text fill="white" style="white-space: pre" xml:space="preserve" font-family="Inter, 'Helvetica Neue', Helvetica, Arial, sans-serif" font-size="16" font-weight="bold" letter-spacing="0em"><tspan x="1978.09" y="275.018">1</tspan></text>
<g clip-path="url(#clip29_0_1)">
<text fill="#232F3E" style="white-space: pre" xml:space="preserve" font-family="Inter, 'Helvetica Neue', Helvetica, Arial, sans-serif" font-size="17" font-weight="bold" letter-spacing="0em"><tspan x="2012" y="273.082">Serve the application</tspan></text>
<text fill="#232F3E" style="white-space: pre" xml:space="preserve" font-family="Inter, 'Helvetica Neue', Helvetica, Arial, sans-serif" font-size="16" letter-spacing="0em"><tspan x="2012" y="304.018">CloudFront reads the private frontend </tspan><tspan x="2012" y="326.418">bucket with OAC. WAF and a viewer-</tspan><tspan x="2012" y="348.818">response function protect the web entry </tspan><tspan x="2012" y="371.218">point.</tspan></text>
</g>
<rect x="1966" y="407" width="32" height="29" rx="3" fill="black"/>
<text fill="white" style="white-space: pre" xml:space="preserve" font-family="Inter, 'Helvetica Neue', Helvetica, Arial, sans-serif" font-size="16" font-weight="bold" letter-spacing="0em"><tspan x="1976.96" y="427.018">2</tspan></text>
<g clip-path="url(#clip30_0_1)">
<text fill="#232F3E" style="white-space: pre" xml:space="preserve" font-family="Inter, 'Helvetica Neue', Helvetica, Arial, sans-serif" font-size="17" font-weight="bold" letter-spacing="0em"><tspan x="2012" y="425.082">Authenticate</tspan></text>
<text fill="#232F3E" style="white-space: pre" xml:space="preserve" font-family="Inter, 'Helvetica Neue', Helvetica, Arial, sans-serif" font-size="16" letter-spacing="0em"><tspan x="2012" y="456.018">The React app signs users in with Amazon </tspan><tspan x="2012" y="478.418">Cognito. Its access token accompanies </tspan><tspan x="2012" y="500.818">each API request.</tspan></text>
</g>
<rect x="1966" y="537" width="32" height="29" rx="3" fill="black"/>
<text fill="white" style="white-space: pre" xml:space="preserve" font-family="Inter, 'Helvetica Neue', Helvetica, Arial, sans-serif" font-size="16" font-weight="bold" letter-spacing="0em"><tspan x="1976.73" y="557.018">3</tspan></text>
<g clip-path="url(#clip31_0_1)">
<text fill="#232F3E" style="white-space: pre" xml:space="preserve" font-family="Inter, 'Helvetica Neue', Helvetica, Arial, sans-serif" font-size="17" font-weight="bold" letter-spacing="0em"><tspan x="2012" y="555.082">Issue upload permission</tspan></text>
<text fill="#232F3E" style="white-space: pre" xml:space="preserve" font-family="Inter, 'Helvetica Neue', Helvetica, Arial, sans-serif" font-size="16" letter-spacing="0em"><tspan x="2012" y="586.018">generateUploadUrl checks filename and </tspan><tspan x="2012" y="608.418">size, saves a pending record with </tspan><tspan x="2012" y="630.818">user_sub, and returns a 5-minute POST </tspan><tspan x="2012" y="653.218">policy.</tspan></text>
</g>
<rect x="1966" y="689" width="32" height="29" rx="3" fill="black"/>
<text fill="white" style="white-space: pre" xml:space="preserve" font-family="Inter, 'Helvetica Neue', Helvetica, Arial, sans-serif" font-size="16" font-weight="bold" letter-spacing="0em"><tspan x="1976.58" y="709.018">4</tspan></text>
<g clip-path="url(#clip32_0_1)">
<text fill="#232F3E" style="white-space: pre" xml:space="preserve" font-family="Inter, 'Helvetica Neue', Helvetica, Arial, sans-serif" font-size="17" font-weight="bold" letter-spacing="0em"><tspan x="2012" y="707.082">Upload directly to S3</tspan></text>
<text fill="#232F3E" style="white-space: pre" xml:space="preserve" font-family="Inter, 'Helvetica Neue', Helvetica, Arial, sans-serif" font-size="16" letter-spacing="0em"><tspan x="2012" y="738.018">The browser submits the media file to </tspan><tspan x="2012" y="760.418">incoming/. The policy constrains the key, </tspan><tspan x="2012" y="782.818">content type, and object size.</tspan></text>
</g>
<rect x="1966" y="819" width="32" height="29" rx="3" fill="black"/>
<text fill="white" style="white-space: pre" xml:space="preserve" font-family="Inter, 'Helvetica Neue', Helvetica, Arial, sans-serif" font-size="16" font-weight="bold" letter-spacing="0em"><tspan x="1976.84" y="839.018">5</tspan></text>
<g clip-path="url(#clip33_0_1)">
<text fill="#232F3E" style="white-space: pre" xml:space="preserve" font-family="Inter, 'Helvetica Neue', Helvetica, Arial, sans-serif" font-size="17" font-weight="bold" letter-spacing="0em"><tspan x="2012" y="837.082">Validate asynchronously</tspan></text>
<text fill="#232F3E" style="white-space: pre" xml:space="preserve" font-family="Inter, 'Helvetica Neue', Helvetica, Arial, sans-serif" font-size="16" letter-spacing="0em"><tspan x="2012" y="868.018">S3 invokes imageValidator. It checks </tspan><tspan x="2012" y="890.418">actual content, copies to approved/ or </tspan><tspan x="2012" y="912.818">rejected/, then deletes the incoming key.</tspan></text>
</g>
<rect x="1966" y="949" width="32" height="29" rx="3" fill="black"/>
<text fill="white" style="white-space: pre" xml:space="preserve" font-family="Inter, 'Helvetica Neue', Helvetica, Arial, sans-serif" font-size="16" font-weight="bold" letter-spacing="0em"><tspan x="1976.72" y="969.018">6</tspan></text>
<g clip-path="url(#clip34_0_1)">
<text fill="#232F3E" style="white-space: pre" xml:space="preserve" font-family="Inter, 'Helvetica Neue', Helvetica, Arial, sans-serif" font-size="17" font-weight="bold" letter-spacing="0em"><tspan x="2012" y="967.082">Record the result</tspan></text>
<text fill="#232F3E" style="white-space: pre" xml:space="preserve" font-family="Inter, 'Helvetica Neue', Helvetica, Arial, sans-serif" font-size="16" letter-spacing="0em"><tspan x="2012" y="998.018">The validator preserves the owner and </tspan><tspan x="2012" y="1020.42">writes status, object keys, detected MIME </tspan><tspan x="2012" y="1042.82">type, and any rejection reason to </tspan><tspan x="2012" y="1065.22">MediaUploads.</tspan></text>
</g>
<rect x="1966" y="1101" width="32" height="29" rx="3" fill="black"/>
<text fill="white" style="white-space: pre" xml:space="preserve" font-family="Inter, 'Helvetica Neue', Helvetica, Arial, sans-serif" font-size="16" font-weight="bold" letter-spacing="0em"><tspan x="1977.24" y="1121.02">7</tspan></text>
<g clip-path="url(#clip35_0_1)">
<text fill="#232F3E" style="white-space: pre" xml:space="preserve" font-family="Inter, 'Helvetica Neue', Helvetica, Arial, sans-serif" font-size="17" font-weight="bold" letter-spacing="0em"><tspan x="2012" y="1119.08">Poll for completion</tspan></text>
<text fill="#232F3E" style="white-space: pre" xml:space="preserve" font-family="Inter, 'Helvetica Neue', Helvetica, Arial, sans-serif" font-size="16" letter-spacing="0em"><tspan x="2012" y="1150.02">POST /media-status runs every 3 </tspan><tspan x="2012" y="1172.42">seconds, up to 30 attempts. The function </tspan><tspan x="2012" y="1194.82">checks ownership; pending keeps polling.</tspan></text>
</g>
<rect x="1966" y="1231" width="32" height="29" rx="3" fill="black"/>
<text fill="white" style="white-space: pre" xml:space="preserve" font-family="Inter, 'Helvetica Neue', Helvetica, Arial, sans-serif" font-size="16" font-weight="bold" letter-spacing="0em"><tspan x="1976.71" y="1251.02">8</tspan></text>
<g clip-path="url(#clip36_0_1)">
<text fill="#232F3E" style="white-space: pre" xml:space="preserve" font-family="Inter, 'Helvetica Neue', Helvetica, Arial, sans-serif" font-size="17" font-weight="bold" letter-spacing="0em"><tspan x="2012" y="1249.08">Preview approved media</tspan></text>
<text fill="#232F3E" style="white-space: pre" xml:space="preserve" font-family="Inter, 'Helvetica Neue', Helvetica, Arial, sans-serif" font-size="16" letter-spacing="0em"><tspan x="2012" y="1280.02">Only approved results receive a 5-minute </tspan><tspan x="2012" y="1302.42">presigned GET URL. The browser reads </tspan><tspan x="2012" y="1324.82">the object directly from S3.</tspan></text>
</g>
<text fill="#232F3E" style="white-space: pre" xml:space="preserve" font-family="Inter, 'Helvetica Neue', Helvetica, Arial, sans-serif" font-size="14" letter-spacing="0em"><tspan x="1966" y="1406.89">&#xb9; Lifecycle expiration: approved/rejected current and </tspan><tspan x="1966" y="1426.49">noncurrent objects after 7 days; incoming current </tspan><tspan x="1966" y="1446.09">objects after 1 day, noncurrent after 7 days.</tspan></text>
<text fill="#232F3E" style="white-space: pre" xml:space="preserve" font-family="Inter, 'Helvetica Neue', Helvetica, Arial, sans-serif" font-size="14" letter-spacing="0em"><tspan x="1966" y="1483.89">&#xb2; SQS receives invocation failures after retries. The </tspan><tspan x="1966" y="1503.49">handler catches many per-file errors and returns </tspan><tspan x="1966" y="1523.09">success; those errors do not reach this destination.</tspan></text>
<defs>
<clipPath id="clip0_0_1">
<rect width="250" height="152" fill="white" transform="translate(1530 1488)"/>
</clipPath>
<clipPath id="clip1_0_1">
<rect width="80" height="80" fill="white" transform="translate(1615 1488)"/>
</clipPath>
<clipPath id="clip2_0_1">
<rect width="230" height="152" fill="white" transform="translate(1122 1487)"/>
</clipPath>
<clipPath id="clip3_0_1">
<rect width="80" height="80" fill="white" transform="translate(1197 1487)"/>
</clipPath>
<clipPath id="clip4_0_1">
<rect width="80" height="80" fill="white" transform="translate(817 1281)"/>
</clipPath>
<clipPath id="clip5_0_1">
<rect width="260" height="152" fill="white" transform="translate(1107 838)"/>
</clipPath>
<clipPath id="clip6_0_1">
<rect width="80" height="80" fill="white" transform="translate(1197 838)"/>
</clipPath>
<clipPath id="clip7_0_1">
<rect width="270" height="152" fill="white" transform="translate(1102 1078)"/>
</clipPath>
<clipPath id="clip8_0_1">
<rect width="80" height="80" fill="white" transform="translate(1197 1078)"/>
</clipPath>
<clipPath id="clip9_0_1">
<rect width="260" height="152" fill="white" transform="translate(1525 958)"/>
</clipPath>
<clipPath id="clip10_0_1">
<rect width="80" height="80" fill="white" transform="translate(1615 958)"/>
</clipPath>
<clipPath id="clip11_0_1">
<rect width="240" height="131" fill="white" transform="translate(745 952)"/>
</clipPath>
<clipPath id="clip12_0_1">
<rect width="80" height="80" fill="white" transform="translate(825 952)"/>
</clipPath>
<clipPath id="clip13_0_1">
<rect width="40" height="40" fill="white" transform="translate(280 170)"/>
</clipPath>
<clipPath id="clip14_0_1">
<rect width="40" height="40" fill="white" transform="translate(700 240)"/>
</clipPath>
<clipPath id="clip15_0_1">
<rect width="200" height="99" fill="white" transform="translate(20 800)"/>
</clipPath>
<clipPath id="clip16_0_1">
<rect width="240" height="131" fill="white" transform="translate(360 340)"/>
</clipPath>
<clipPath id="clip17_0_1">
<rect width="80" height="80" fill="white" transform="translate(440 340)"/>
</clipPath>
<clipPath id="clip18_0_1">
<rect width="180" height="159" fill="white" transform="translate(282 550)"/>
</clipPath>
<clipPath id="clip19_0_1">
<rect width="80" height="80" fill="white" transform="translate(332 550)"/>
</clipPath>
<clipPath id="clip20_0_1">
<rect width="190" height="99" fill="white" transform="translate(495 550)"/>
</clipPath>
<clipPath id="clip21_0_1">
<rect width="230" height="152" fill="white" transform="translate(745 340)"/>
</clipPath>
<clipPath id="clip22_0_1">
<rect width="80" height="80" fill="white" transform="translate(820 340)"/>
</clipPath>
<clipPath id="clip23_0_1">
<rect width="240" height="152" fill="white" transform="translate(745 704)"/>
</clipPath>
<clipPath id="clip24_0_1">
<rect width="80" height="80" fill="white" transform="translate(825 704)"/>
</clipPath>
<clipPath id="clip25_0_1">
<rect width="360" height="131" fill="white" transform="translate(300 1815)"/>
</clipPath>
<clipPath id="clip26_0_1">
<rect width="80" height="80" fill="white" transform="translate(440 1815)"/>
</clipPath>
<clipPath id="clip27_0_1">
<rect width="350" height="131" fill="white" transform="translate(875 1815)"/>
</clipPath>
<clipPath id="clip28_0_1">
<rect width="80" height="80" fill="white" transform="translate(1010 1815)"/>
</clipPath>
<clipPath id="clip29_0_1">
<rect width="320" height="122" fill="white" transform="translate(2012 255)"/>
</clipPath>
<clipPath id="clip30_0_1">
<rect width="320" height="100" fill="white" transform="translate(2012 407)"/>
</clipPath>
<clipPath id="clip31_0_1">
<rect width="320" height="122" fill="white" transform="translate(2012 537)"/>
</clipPath>
<clipPath id="clip32_0_1">
<rect width="320" height="100" fill="white" transform="translate(2012 689)"/>
</clipPath>
<clipPath id="clip33_0_1">
<rect width="320" height="100" fill="white" transform="translate(2012 819)"/>
</clipPath>
<clipPath id="clip34_0_1">
<rect width="320" height="122" fill="white" transform="translate(2012 949)"/>
</clipPath>
<clipPath id="clip35_0_1">
<rect width="320" height="100" fill="white" transform="translate(2012 1101)"/>
</clipPath>
<clipPath id="clip36_0_1">
<rect width="320" height="100" fill="white" transform="translate(2012 1231)"/>
</clipPath>
</defs>
</svg>
